<svg data-name="Grupo 1124" xmlns="http://www.w3.org/2000/svg" width="1762" height="284.273" viewBox="0 0 1762 284.273">
    <defs>
        <clipPath id="qyikiw7aca">
            <path data-name="Rectángulo 148" d="M0 0h1762v284.273H0z"/>
        </clipPath>
    </defs>
    <path data-name="Trazado 29" d="M12.616 142.136 142.135 12.617l129.518 129.519-129.518 129.519zM142.135.001 0 142.136l142.135 142.138 142.134-142.138z"/>
    <path data-name="Trazado 30" d="M142.643 243.959 40.899 142.137 142.09 40.946l17.662 17.66-83.527 83.531 84.081 84.16z"/>
    <path data-name="Trazado 31" d="m179.751 206.832-17.754-17.573 46.152-46.626-44.981-45.6 17.623-17.383 62.989 63.17z"/>
    <path data-name="Rectángulo 146" d="m114.971 142.137 27.165-27.165 27.165 27.165-27.165 27.165z"/>
    <g data-name="Grupo 115">
        <g data-name="Grupo 114" style="clip-path:url(#qyikiw7aca)">
            <path data-name="Trazado 32" d="M407.543 138.411h67.274v76.176h-22.763v-19.665c-10.56 14.491-27.944 22.356-48.855 22.356-41.812 0-73.071-33.118-73.071-75.139s31.673-75.145 75.142-75.145c33.535 0 62.1 21.531 69.551 50.3h-25.257c-6-15.525-23.6-27.119-44.3-27.119-30.636 0-51.338 22.15-51.338 51.961 0 30.841 21.322 52.992 51.338 52.992 24.013 0 43.678-12.419 45.746-35.4h-43.467z"/>
            <path data-name="Trazado 33" d="M617.45 191.818v22.77h-84.87V69.686h83.836v22.77h-60.032v37.676h54.858v22.356h-54.858v39.329z"/>
            <path data-name="Trazado 34" d="M774.57 69.686v144.9h-18.631l-61.065-98.325v98.327h-23.8V69.686h18.631l61.066 98.327V69.686z"/>
            <path data-name="Rectángulo 147" d="M835.438 69.687h23.805v144.902h-23.805z"/>
            <path data-name="Trazado 35" d="M912.854 142.142A74.612 74.612 0 0 1 987.996 67c42.021 0 75.142 33.118 75.142 75.142s-33.121 75.142-75.142 75.142a74.613 74.613 0 0 1-75.142-75.142m126.48 0c0-29.81-22.356-51.958-51.338-51.958s-51.337 22.145-51.337 51.958 22.359 51.958 51.337 51.958 51.338-22.158 51.338-51.958"/>
            <path data-name="Trazado 36" d="M1163.129 161.804h-22.565v52.786h-23.81V69.688h53.821a46.38 46.38 0 0 1 46.579 46.575c0 18.422-11.8 34.984-28.568 42.021l47.2 56.306h-28.36zm-22.565-21.322h30.016c12.628 0 22.77-10.762 22.77-24.219 0-13.662-10.143-24.219-22.77-24.219h-30.016z"/>
            <path data-name="Trazado 37" d="M1361.44 185.4h-60.238l-9.729 29.187h-25.875l51.541-144.9h28.567l51.338 144.9h-25.671zm-7.66-22.359-22.357-66.24-22.564 66.24z"/>
            <path data-name="Trazado 38" d="M1583.144 214.588h-23.8V109.016l-36.228 81.768h-18.634l-36.225-81.768v105.572h-23.8V69.686h27.736l41.609 93.564 41.607-93.564h27.739z"/>
            <path data-name="Trazado 39" d="M1726.395 185.4h-60.236l-9.729 29.187h-25.878l51.542-144.9h28.567l51.338 144.9h-25.668zm-7.656-22.359-22.355-66.24-22.569 66.24z"/>
        </g>
    </g>
</svg>
